<svg width="34" height="34" viewBox="0 0 34 34" fill="none" xmlns="http://www.w3.org/2000/svg">
<g clip-path="url(#clip0_2_11)">
<path d="M17.0082 0.257568C10.0173 0.257568 7.97276 0.26478 7.57533 0.297749C6.14068 0.417003 5.24795 0.64289 4.27537 1.12712C3.52585 1.4993 2.93473 1.93073 2.35134 2.5355C1.28887 3.63841 0.644951 4.99527 0.411852 6.60816C0.298522 7.39117 0.265553 7.55086 0.258856 11.5504C0.25628 12.8836 0.258856 14.6381 0.258856 16.9915C0.258856 23.9767 0.266583 26.0193 0.300067 26.4159C0.415973 27.8119 0.634905 28.6902 1.09853 29.651C1.98456 31.49 3.67678 32.8706 5.67036 33.3857C6.36064 33.5634 7.12304 33.6613 8.1018 33.7077C8.51649 33.7257 12.7432 33.7386 16.9724 33.7386C21.2017 33.7386 25.431 33.7334 25.8354 33.7128C26.9687 33.6595 27.6267 33.5712 28.3544 33.3831C30.3608 32.8654 32.0221 31.5055 32.9262 29.6407C33.3808 28.7031 33.6113 27.7913 33.7156 26.4682C33.7383 26.1797 33.7478 21.5803 33.7478 16.9871C33.7478 12.3931 33.7375 7.80225 33.7149 7.51377C33.6093 6.16927 33.3787 5.2652 32.9095 4.30963C32.5244 3.52739 32.0968 2.94323 31.4761 2.34593C30.3683 1.28784 29.0135 0.64392 27.3991 0.411079C26.6168 0.298007 26.461 0.264523 22.4584 0.257568H17.0082Z" fill="#161616"/>
<path d="M17.0005 4.63622C13.6429 4.63622 13.2215 4.6509 11.9027 4.71092C10.5866 4.77119 9.68816 4.97956 8.90206 5.28529C8.08892 5.60107 7.39915 6.02348 6.71196 6.71093C6.02426 7.39812 5.60184 8.08789 5.28504 8.90078C4.97853 9.68713 4.7699 10.5858 4.71066 11.9014C4.65168 13.2202 4.63622 13.6418 4.63622 16.9995C4.63622 20.3571 4.65116 20.7772 4.71092 22.096C4.77145 23.4122 4.97982 24.3105 5.28529 25.0966C5.60133 25.9098 6.02374 26.5996 6.71119 27.2867C7.39812 27.9745 8.08789 28.3979 8.90052 28.7137C9.68713 29.0194 10.5858 29.2278 11.9017 29.2881C13.2204 29.3481 13.6416 29.3627 16.999 29.3627C20.3569 29.3627 20.777 29.3481 22.0957 29.2881C23.4119 29.2278 24.3113 29.0194 25.0979 28.7137C25.9108 28.3979 26.5996 27.9745 27.2865 27.2867C27.9742 26.5996 28.3966 25.9098 28.7134 25.0969C29.0173 24.3106 29.226 23.4119 29.2878 22.0962C29.347 20.7775 29.3625 20.3571 29.3625 16.9995C29.3625 13.6418 29.347 13.2204 29.2878 11.9017C29.226 10.5855 29.0173 9.68713 28.7134 8.90103C28.3966 8.08789 27.9742 7.39812 27.2865 6.71093C26.5988 6.02323 25.9111 5.60081 25.0972 5.28529C24.309 4.97956 23.4101 4.77119 22.0939 4.71092C20.7752 4.6509 20.3553 4.63622 16.9967 4.63622H17.0005ZM15.8914 6.86419C16.2206 6.86367 16.5879 6.86419 17.0005 6.86419C20.3015 6.86419 20.6928 6.87603 21.9963 6.93527C23.2017 6.99039 23.8559 7.19181 24.2917 7.36103C24.8687 7.58512 25.28 7.85299 25.7125 8.2857C26.1452 8.71842 26.4131 9.13053 26.6377 9.70748C26.8069 10.1428 27.0086 10.797 27.0634 12.0024C27.1227 13.3057 27.1356 13.6972 27.1356 16.9967C27.1356 20.2961 27.1227 20.6876 27.0634 21.9909C27.0083 23.1963 26.8069 23.8505 26.6377 24.2858C26.4136 24.8628 26.1452 25.2736 25.7125 25.7061C25.2798 26.1388 24.869 26.4066 24.2917 26.6307C23.8565 26.8007 23.2017 27.0016 21.9963 27.0567C20.693 27.116 20.3015 27.1289 17.0005 27.1289C13.6993 27.1289 13.308 27.116 12.0047 27.0567C10.7993 27.0011 10.1451 26.7997 9.70902 26.6305C9.13207 26.4064 8.71996 26.1385 8.28725 25.7058C7.85453 25.2731 7.58666 24.862 7.36206 24.2848C7.19284 23.8495 6.99117 23.1953 6.9363 21.9899C6.87706 20.6866 6.86522 20.2951 6.86522 16.9936C6.86522 13.6921 6.87706 13.3026 6.9363 11.9993C6.99142 10.7939 7.19284 10.1397 7.36206 9.70387C7.58615 9.12692 7.85453 8.71481 8.28725 8.2821C8.71996 7.84938 9.13207 7.58151 9.70902 7.35691C10.1448 7.18692 10.7993 6.98602 12.0047 6.93064C13.1452 6.87912 13.5872 6.86367 15.8914 6.86109V6.86419ZM23.5999 8.917C22.7809 8.917 22.1163 9.58075 22.1163 10.4001C22.1163 11.2191 22.7809 11.8837 23.5999 11.8837C24.419 11.8837 25.0835 11.2191 25.0835 10.4001C25.0835 9.58101 24.419 8.91649 23.5999 8.91649V8.917ZM17.0005 10.6504C13.4942 10.6504 10.6515 13.4932 10.6515 16.9995C10.6515 20.5058 13.4942 23.3472 17.0005 23.3472C20.5068 23.3472 23.3485 20.5058 23.3485 16.9995C23.3485 13.4932 20.5068 10.6504 17.0005 10.6504ZM17.0005 12.8784C19.2764 12.8784 21.1216 14.7234 21.1216 16.9995C21.1216 19.2754 19.2764 21.1206 17.0005 21.1206C14.7244 21.1206 12.8794 19.2754 12.8794 16.9995C12.8794 14.7234 14.7244 12.8784 17.0005 12.8784Z" fill="#FFE3E2"/>
</g>
<defs>
<clipPath id="clip0_2_11">
<rect width="34" height="33.999" fill="white"/>
</clipPath>
</defs>
</svg>
