<svg width="34" height="34" viewBox="0 0 34 34" fill="none" xmlns="http://www.w3.org/2000/svg">
<g clip-path="url(#clip0_22_27)">
<path d="M25.4528 0.0134811H8.52022C3.82871 0.0134811 0 3.84219 0 8.5337V25.4933C0 30.1578 3.82871 33.9865 8.52022 33.9865H25.4798C30.1713 33.9865 34 30.1578 34 25.4663V8.5337C33.973 3.84219 30.1443 0.0134811 25.4528 0.0134811ZM11.3243 27.5155H6.47105V13.4948H11.3243V27.5155ZM8.87074 11.3378C7.49564 11.3378 6.39017 10.2324 6.39017 8.85726C6.39017 7.48216 7.49564 6.37668 8.87074 6.37668C10.2458 6.37668 11.3513 7.48216 11.3513 8.85726C11.3243 10.2324 10.2189 11.3378 8.87074 11.3378ZM27.5289 27.5155H27.502H23.4576V20.7209C23.4576 19.0761 23.2419 16.973 21.004 16.973C18.7121 16.973 18.3347 18.7526 18.3347 20.613V27.5155H14.2902V13.4948H18.065V15.3822H18.1729C18.7661 14.3037 20.1412 13.4679 22.2982 13.4679C26.747 13.4679 27.5289 16.0293 27.5289 19.8311V27.5155Z" fill="#171512"/>
</g>
<defs>
<clipPath id="clip0_22_27">
<rect width="34" height="34" fill="white"/>
</clipPath>
</defs>
</svg>
