<svg width="34" height="34" viewBox="0 0 34 34" fill="none" xmlns="http://www.w3.org/2000/svg">
<g clip-path="url(#clip0_20_18)">
<path d="M14.195 33.83C6.12 32.385 0 25.415 0 17C0 7.65 7.65 0 17 0C26.35 0 34 7.65 34 17C34 25.415 27.88 32.385 19.805 33.83L18.87 33.065H15.13L14.195 33.83Z" fill="#161616"/>
<path d="M23.63 21.76L24.395 17H19.89V13.685C19.89 12.325 20.4 11.305 22.44 11.305H24.65V6.97C23.46 6.8 22.1 6.63 20.91 6.63C17 6.63 14.28 9.01 14.28 13.26V17H10.03V21.76H14.28V33.745C15.215 33.915 16.15 34 17.085 34C18.02 34 18.955 33.915 19.89 33.745V21.76H23.63Z" fill="#FFE3E2"/>
</g>
<defs>
<clipPath id="clip0_20_18">
<rect width="34" height="34" fill="white"/>
</clipPath>
</defs>
</svg>
