<svg width="34" height="34" viewBox="0 0 34 34" fill="none" xmlns="http://www.w3.org/2000/svg">
<path fill-rule="evenodd" clip-rule="evenodd" d="M17.0141 0C7.60573 0 0 7.79163 0 17.4309C0 25.1362 4.87325 31.6585 11.6337 33.9669C12.479 34.1405 12.7886 33.5919 12.7886 33.1304C12.7886 32.7263 12.7607 31.3411 12.7607 29.8979C8.02782 30.937 7.04224 27.82 7.04224 27.82C6.28163 25.7999 5.15465 25.2807 5.15465 25.2807C3.60557 24.2129 5.26749 24.2129 5.26749 24.2129C6.98582 24.3283 7.88747 26.0021 7.88747 26.0021C9.40834 28.6569 11.8591 27.9068 12.845 27.445C12.9857 26.3194 13.4367 25.5403 13.9156 25.1075C10.1407 24.7034 6.16914 23.2028 6.16914 16.5073C6.16914 14.6026 6.84477 13.0443 7.91533 11.8323C7.74643 11.3995 7.15473 9.60992 8.08459 7.2147C8.08459 7.2147 9.52118 6.75287 12.7604 9.00394C14.1472 8.62239 15.5774 8.42829 17.0141 8.42665C18.4507 8.42665 19.9151 8.62888 21.2674 9.00394C24.507 6.75287 25.9435 7.2147 25.9435 7.2147C26.8734 9.60992 26.2814 11.3995 26.1125 11.8323C27.2112 13.0443 27.859 14.6026 27.859 16.5073C27.859 23.2028 23.8874 24.6743 20.0844 25.1075C20.7043 25.6557 21.2392 26.6945 21.2392 28.3396C21.2392 30.6771 21.2113 32.5531 21.2113 33.13C21.2113 33.5919 21.5213 34.1405 22.3662 33.9673C29.1267 31.6581 33.9999 25.1362 33.9999 17.4309C34.0278 7.79163 26.3942 0 17.0141 0Z" fill="#161616"/>
</svg>
